<mxfile host="app.diagrams.net" modified="2021-04-20T06:46:58.494Z" agent="5.0 (Windows NT 10.0; Win64; x64) AppleWebKit/537.36 (KHTML, like Gecko) Chrome/89.0.4389.128 Safari/537.36" etag="-0JpyJzxmlaTOPoVogg7" version="14.6.3" type="github">
  <diagram id="QiVoziARZaSNwG7O52th" name="Page-1">
    <mxGraphModel dx="1422" dy="762" grid="1" gridSize="10" guides="1" tooltips="1" connect="1" arrows="1" fold="1" page="1" pageScale="1" pageWidth="850" pageHeight="1100" math="0" shadow="0">
      <root>
        <mxCell id="0" />
        <mxCell id="1" parent="0" />
        <mxCell id="aI43hv4uZr0a3j7iMdJf-12" value="" style="edgeStyle=orthogonalEdgeStyle;rounded=0;orthogonalLoop=1;jettySize=auto;html=1;startArrow=classic;startFill=1;" parent="1" source="aI43hv4uZr0a3j7iMdJf-1" target="aI43hv4uZr0a3j7iMdJf-4" edge="1">
          <mxGeometry relative="1" as="geometry">
            <Array as="points">
              <mxPoint x="620" y="345" />
              <mxPoint x="620" y="345" />
            </Array>
          </mxGeometry>
        </mxCell>
        <mxCell id="aI43hv4uZr0a3j7iMdJf-17" value="Entries" style="edgeLabel;html=1;align=center;verticalAlign=middle;resizable=0;points=[];" parent="aI43hv4uZr0a3j7iMdJf-12" vertex="1" connectable="0">
          <mxGeometry x="0.2298" y="-1" relative="1" as="geometry">
            <mxPoint x="-9" y="-1" as="offset" />
          </mxGeometry>
        </mxCell>
        <mxCell id="aI43hv4uZr0a3j7iMdJf-1" value="Backend" style="html=1;" parent="1" vertex="1">
          <mxGeometry x="440" y="320" width="120" height="40" as="geometry" />
        </mxCell>
        <mxCell id="aI43hv4uZr0a3j7iMdJf-2" value="Email Server" style="html=1;" parent="1" vertex="1">
          <mxGeometry x="440" y="200" width="120" height="40" as="geometry" />
        </mxCell>
        <mxCell id="aI43hv4uZr0a3j7iMdJf-4" value="Database" style="html=1;" parent="1" vertex="1">
          <mxGeometry x="640" y="320" width="120" height="40" as="geometry" />
        </mxCell>
        <mxCell id="aI43hv4uZr0a3j7iMdJf-5" value="Frontend Renderer" style="html=1;" parent="1" vertex="1">
          <mxGeometry x="240" y="320" width="120" height="40" as="geometry" />
        </mxCell>
        <mxCell id="aI43hv4uZr0a3j7iMdJf-7" value="Missionary" style="shape=umlActor;verticalLabelPosition=bottom;verticalAlign=top;html=1;" parent="1" vertex="1">
          <mxGeometry x="340" y="80" width="30" height="60" as="geometry" />
        </mxCell>
        <mxCell id="aI43hv4uZr0a3j7iMdJf-8" value="" style="endArrow=classic;html=1;entryX=0;entryY=0;entryDx=0;entryDy=0;" parent="1" source="aI43hv4uZr0a3j7iMdJf-7" target="aI43hv4uZr0a3j7iMdJf-2" edge="1">
          <mxGeometry width="50" height="50" relative="1" as="geometry">
            <mxPoint x="420" y="80" as="sourcePoint" />
            <mxPoint x="490" y="320" as="targetPoint" />
          </mxGeometry>
        </mxCell>
        <mxCell id="aI43hv4uZr0a3j7iMdJf-9" value="Email" style="edgeLabel;html=1;align=center;verticalAlign=middle;resizable=0;points=[];" parent="aI43hv4uZr0a3j7iMdJf-8" vertex="1" connectable="0">
          <mxGeometry x="0.3" relative="1" as="geometry">
            <mxPoint as="offset" />
          </mxGeometry>
        </mxCell>
        <mxCell id="aI43hv4uZr0a3j7iMdJf-10" value="" style="endArrow=classic;html=1;exitX=0.5;exitY=1;exitDx=0;exitDy=0;entryX=0.5;entryY=0;entryDx=0;entryDy=0;" parent="1" source="aI43hv4uZr0a3j7iMdJf-2" target="aI43hv4uZr0a3j7iMdJf-1" edge="1">
          <mxGeometry width="50" height="50" relative="1" as="geometry">
            <mxPoint x="490" y="270" as="sourcePoint" />
            <mxPoint x="490" y="320" as="targetPoint" />
          </mxGeometry>
        </mxCell>
        <mxCell id="aI43hv4uZr0a3j7iMdJf-11" value="Email Text" style="edgeLabel;html=1;align=center;verticalAlign=middle;resizable=0;points=[];" parent="aI43hv4uZr0a3j7iMdJf-10" vertex="1" connectable="0">
          <mxGeometry x="0.5143" y="1" relative="1" as="geometry">
            <mxPoint x="-1" y="-13" as="offset" />
          </mxGeometry>
        </mxCell>
        <mxCell id="aI43hv4uZr0a3j7iMdJf-14" value="" style="endArrow=classic;html=1;entryX=1;entryY=0.5;entryDx=0;entryDy=0;exitX=0;exitY=0.5;exitDx=0;exitDy=0;" parent="1" source="aI43hv4uZr0a3j7iMdJf-1" target="aI43hv4uZr0a3j7iMdJf-5" edge="1">
          <mxGeometry width="50" height="50" relative="1" as="geometry">
            <mxPoint x="440" y="370" as="sourcePoint" />
            <mxPoint x="490" y="320" as="targetPoint" />
          </mxGeometry>
        </mxCell>
        <mxCell id="aI43hv4uZr0a3j7iMdJf-19" value="Control Panel" style="html=1;" parent="1" vertex="1">
          <mxGeometry x="240" y="200" width="120" height="40" as="geometry" />
        </mxCell>
        <mxCell id="aI43hv4uZr0a3j7iMdJf-20" value="" style="endArrow=classic;html=1;exitX=0.5;exitY=0;exitDx=0;exitDy=0;" parent="1" source="aI43hv4uZr0a3j7iMdJf-5" target="aI43hv4uZr0a3j7iMdJf-23" edge="1">
          <mxGeometry width="50" height="50" relative="1" as="geometry">
            <mxPoint x="275" y="310" as="sourcePoint" />
            <mxPoint x="325" y="260" as="targetPoint" />
          </mxGeometry>
        </mxCell>
        <mxCell id="aI43hv4uZr0a3j7iMdJf-30" value="Web Page" style="edgeLabel;html=1;align=center;verticalAlign=middle;resizable=0;points=[];" parent="aI43hv4uZr0a3j7iMdJf-20" vertex="1" connectable="0">
          <mxGeometry x="0.2432" y="-2" relative="1" as="geometry">
            <mxPoint as="offset" />
          </mxGeometry>
        </mxCell>
        <mxCell id="aI43hv4uZr0a3j7iMdJf-23" value="Website&lt;br&gt;Visitor" style="shape=umlActor;verticalLabelPosition=bottom;verticalAlign=top;html=1;outlineConnect=0;" parent="1" vertex="1">
          <mxGeometry x="130" y="260" width="30" height="60" as="geometry" />
        </mxCell>
        <mxCell id="aI43hv4uZr0a3j7iMdJf-24" value="Parent" style="shape=umlActor;verticalLabelPosition=bottom;verticalAlign=top;html=1;outlineConnect=0;" parent="1" vertex="1">
          <mxGeometry x="150" y="90" width="30" height="60" as="geometry" />
        </mxCell>
        <mxCell id="aI43hv4uZr0a3j7iMdJf-27" value="" style="endArrow=classic;html=1;entryX=0;entryY=0;entryDx=0;entryDy=0;" parent="1" source="aI43hv4uZr0a3j7iMdJf-24" target="aI43hv4uZr0a3j7iMdJf-19" edge="1">
          <mxGeometry width="50" height="50" relative="1" as="geometry">
            <mxPoint x="380" y="260" as="sourcePoint" />
            <mxPoint x="430" y="210" as="targetPoint" />
          </mxGeometry>
        </mxCell>
        <mxCell id="aI43hv4uZr0a3j7iMdJf-31" value="Commands/Edits" style="edgeLabel;html=1;align=center;verticalAlign=middle;resizable=0;points=[];" parent="aI43hv4uZr0a3j7iMdJf-27" vertex="1" connectable="0">
          <mxGeometry x="0.2621" y="1" relative="1" as="geometry">
            <mxPoint as="offset" />
          </mxGeometry>
        </mxCell>
        <mxCell id="aI43hv4uZr0a3j7iMdJf-32" value="" style="endArrow=classic;html=1;exitX=1;exitY=1;exitDx=0;exitDy=0;entryX=0;entryY=0;entryDx=0;entryDy=0;" parent="1" source="aI43hv4uZr0a3j7iMdJf-19" target="aI43hv4uZr0a3j7iMdJf-1" edge="1">
          <mxGeometry width="50" height="50" relative="1" as="geometry">
            <mxPoint x="380" y="260" as="sourcePoint" />
            <mxPoint x="430" y="210" as="targetPoint" />
            <Array as="points">
              <mxPoint x="430" y="240" />
            </Array>
          </mxGeometry>
        </mxCell>
        <mxCell id="aI43hv4uZr0a3j7iMdJf-33" value="Requests" style="edgeLabel;html=1;align=center;verticalAlign=middle;resizable=0;points=[];" parent="aI43hv4uZr0a3j7iMdJf-32" vertex="1" connectable="0">
          <mxGeometry x="0.2214" y="-2" relative="1" as="geometry">
            <mxPoint as="offset" />
          </mxGeometry>
        </mxCell>
        <mxCell id="aI43hv4uZr0a3j7iMdJf-34" value="" style="endArrow=none;html=1;exitX=1;exitY=1;exitDx=0;exitDy=0;startArrow=classic;startFill=1;endFill=0;entryX=1;entryY=0;entryDx=0;entryDy=0;" parent="1" source="aI43hv4uZr0a3j7iMdJf-19" target="aI43hv4uZr0a3j7iMdJf-5" edge="1">
          <mxGeometry width="50" height="50" relative="1" as="geometry">
            <mxPoint x="380" y="260" as="sourcePoint" />
            <mxPoint x="440" y="320" as="targetPoint" />
            <Array as="points" />
          </mxGeometry>
        </mxCell>
        <mxCell id="aI43hv4uZr0a3j7iMdJf-35" value="Page Info" style="edgeLabel;html=1;align=center;verticalAlign=middle;resizable=0;points=[];" parent="aI43hv4uZr0a3j7iMdJf-34" vertex="1" connectable="0">
          <mxGeometry x="0.2671" relative="1" as="geometry">
            <mxPoint x="-16" y="-15" as="offset" />
          </mxGeometry>
        </mxCell>
      </root>
    </mxGraphModel>
  </diagram>
</mxfile>
